<svg height="200px" width="200px" version="1.1" id="Layer_1" xmlns="http://www.w3.org/2000/svg" xmlns:xlink="http://www.w3.org/1999/xlink" viewBox="0 0 512 512" xml:space="preserve" fill="#000000"><g id="SVGRepo_bgCarrier" stroke-width="0"></g><g id="SVGRepo_tracerCarrier" stroke-linecap="round" stroke-linejoin="round"></g><g id="SVGRepo_iconCarrier"> <g transform="translate(0 1)"> <g> <path style="fill:#FFE100;" d="M439.348,323.267V152.6c0-16.213-13.653-34.133-29.867-34.133c-4.267,0-8.533,1.707-12.8,3.413 c10.24,5.973,17.067,18.773,17.067,30.72v170.667c0,84.48,1.707,82.773-25.6,119.467l0,0V511h25.6v-68.267l0,0 C441.054,406.04,439.348,407.747,439.348,323.267"></path> <path style="fill:#FFE100;" d="M388.148,323.267v-102.4c3.413-53.76,6.827-113.493-34.133-102.4 c-1.707,0.853,0.853,68.267,0,69.12V58.733c0-16.213-13.653-34.133-29.867-34.133c-16.213,0-29.867,9.387-29.867,25.6v187.733 V41.667c0-16.213-13.653-34.133-29.867-34.133c-16.213,0-29.867,17.92-29.867,34.133V75.8c0-16.213-0.853-34.133-17.067-34.133 s-17.067,17.92-17.067,34.133v204.8c0-17.067-11.093-47.787-25.6-71.68c-5.12-8.533-2.56,34.987-8.533,29.013l0,0 c-7.68-7.68-30.72-61.44-42.667-58.027c-15.36,4.267-24.747,17.92-8.533,40.96c20.48,28.16,34.133,87.893,34.133,119.467 c0,75.947,59.733,102.4,59.733,102.4V511h153.6v-68.267l0,0C389.854,406.04,388.148,407.747,388.148,323.267"></path> </g> <path style="fill:#FFA800;" d="M413.748,323.267V152.6c0-16.213-13.653-34.133-29.867-34.133c-4.267,0-8.533,1.707-12.8,3.413 c10.24,5.973,17.067,18.773,17.067,30.72v170.667c0,84.48,1.707,82.773-25.6,119.467l0,0V511h25.6v-68.267l0,0 C415.454,406.04,413.748,407.747,413.748,323.267"></path> <g> <path style="fill:#FFFFFF;" d="M200.414,289.133V75.8c0-14.507,0.853-29.013,11.093-33.28c-2.56,0-4.267-0.853-6.827-0.853 c-16.213,0-29.867,17.92-29.867,34.133v141.653C189.321,241.347,200.414,272.067,200.414,289.133"></path> <path style="fill:#FFFFFF;" d="M149.214,340.333c0-31.573-13.653-91.307-34.133-119.467c-15.36-22.187-7.68-34.987,6.827-40.107 c-23.04-7.68-57.173,5.973-32.427,40.107c20.48,28.16,34.133,87.893,34.133,119.467c0,75.947,59.733,102.4,59.733,102.4V511h25.6 v-68.267C208.948,442.733,149.214,416.28,149.214,340.333"></path> </g> <path d="M183.348,511c-5.12,0-8.533-3.413-8.533-8.533v-54.613c-15.36-8.533-59.733-39.253-59.733-107.52 c0-32.427-14.507-88.747-32.427-114.347c-19.627-27.307-5.12-42.667-0.853-46.933c15.36-12.8,42.667-11.947,56.32,1.707 c10.24,10.24,20.48,25.6,28.16,41.813V178.2c0-5.12,3.413-8.533,8.533-8.533c5.12,0,8.533,3.413,8.533,8.533v102.4 c0,5.12-3.413,8.533-8.533,8.533c-5.12,0-8.533-3.413-8.533-8.533c0-21.333-18.773-66.56-40.107-87.893 c-7.68-7.68-24.747-7.68-33.28-0.853c-7.68,5.973-2.56,16.213,3.413,23.893c22.187,30.72,35.84,93.013,35.84,124.587 c0,69.12,52.053,93.867,54.613,94.72c3.413,1.707,5.12,4.267,5.12,7.68v59.733C191.881,507.587,187.614,511,183.348,511z"></path> <path d="M388.148,511L388.148,511c-5.12,0-8.533-3.413-8.533-8.533v-58.88c0-1.707,0-4.267,1.707-5.973 c23.893-32.427,23.893-32.427,23.893-97.28V152.6c0-11.947-9.387-25.6-21.333-25.6c-11.093,0-20.48,12.8-21.333,23.893V255 c0,5.12-3.413,8.533-8.533,8.533l0,0c-5.12,0-8.533-3.413-8.533-8.533V152.6c0-0.853,0-1.707,0-1.707v-92.16 c0-11.947-9.387-25.6-21.333-25.6c-11.947,0-21.333,13.653-21.333,25.6v179.2c0,5.12-3.413,8.533-8.533,8.533l0,0 c-5.12,0-8.533-3.413-8.533-8.533V41.667c0-11.947-9.387-25.6-21.333-25.6c-11.947,0-21.333,13.653-21.333,25.6V229.4 c0,5.12-3.413,8.533-8.533,8.533c-5.12,0-8.533-3.413-8.533-8.533V75.8c0-11.947-9.387-25.6-21.333-25.6 c-11.947,0-21.333,13.653-21.333,25.6v34.133c0,5.12-3.413,8.533-8.533,8.533c-5.12,0-8.533-3.413-8.533-8.533V75.8 c0-20.48,16.213-42.667,38.4-42.667c7.68,0,15.36,3.413,21.333,7.68c0-19.627,17.067-41.813,38.4-41.813 c16.213,0,29.867,12.8,35.84,27.307c5.973-5.973,14.507-10.24,23.893-10.24c22.187,0,38.4,22.187,38.4,42.667v58.88 c5.973-5.12,13.653-7.68,21.333-7.68c22.187,0,38.4,22.187,38.4,42.667v187.733c0,66.56,0,70.827-25.6,104.96v57.173 C396.681,507.587,392.414,511,388.148,511z"></path> <path d="M183.348,144.067c0-5.12-3.413-8.533-8.533-8.533c-5.12,0-8.533,3.413-8.533,8.533c0,5.12,3.413,8.533,8.533,8.533 C179.934,152.6,183.348,149.187,183.348,144.067"></path> <path d="M294.281,434.2h-25.6c-5.12,0-8.533-3.413-8.533-8.533s3.413-8.533,8.533-8.533h25.6c5.12,0,8.533,3.413,8.533,8.533 S299.401,434.2,294.281,434.2z"></path> <path d="M302.814,468.333h-42.667c-5.12,0-8.533-3.413-8.533-8.533s3.413-8.533,8.533-8.533h42.667c5.12,0,8.533,3.413,8.533,8.533 S307.934,468.333,302.814,468.333z"></path> </g> </g></svg>