<svg height="200px" width="200px" version="1.1" id="Layer_1" xmlns="http://www.w3.org/2000/svg" xmlns:xlink="http://www.w3.org/1999/xlink" viewBox="0 0 512.88 512.88" xml:space="preserve" fill="#000000"><g id="SVGRepo_bgCarrier" stroke-width="0"></g><g id="SVGRepo_tracerCarrier" stroke-linecap="round" stroke-linejoin="round"></g><g id="SVGRepo_iconCarrier"> <g transform="translate(1 1)"> <g> <path style="fill:#FFE100;" d="M196.87,220.728L196.87,220.728c-22.563,0-41.654-18.224-41.654-41.654V68.864 c0-19.092,15.62-39.051,34.712-39.051h17.356c19.092,0,34.712,19.959,34.712,39.051v106.739 C241.995,199.901,221.168,220.728,196.87,220.728"></path> <path style="fill:#FFE100;" d="M283.649,203.372L283.649,203.372c-22.563,0-41.654-18.224-41.654-41.654V51.508 c0-19.092,15.62-39.051,34.712-39.051h17.356c19.092,0,34.712,19.959,34.712,39.051v106.739 C328.775,182.545,307.948,203.372,283.649,203.372"></path> <path style="fill:#FFE100;" d="M370.429,220.728L370.429,220.728c-22.563,0-41.654-18.224-41.654-41.654V68.864 c0-19.092,15.62-39.051,34.712-39.051h17.356c19.092,0,34.712,19.959,34.712,39.051v106.739 C415.554,199.901,394.727,220.728,370.429,220.728"></path> </g> <g> <path style="fill:#FFA800;" d="M458.944,255.44L458.944,255.44c-22.563,0-43.39-16.488-43.39-39.051V110.518 c0-18.224,15.62-37.315,34.712-37.315h17.356c19.092,0,34.712,19.092,34.712,37.315v102.4 C502.334,237.216,484.11,255.44,458.944,255.44"></path> <path style="fill:#FFA800;" d="M502.334,212.918c0,24.298-18.224,42.522-43.39,42.522c-22.563,0-43.39-16.488-43.39-38.183 v-41.654c0,25.166-20.827,45.125-45.125,45.125c-22.563,0-41.654-18.224-41.654-41.654v-5.207l-3.471,0.868 c-6.075,16.488-22.563,28.637-41.654,28.637c-13.017,0-24.298-6.075-32.108-15.62l-12.149,1.736 c-6.075,18.224-22.563,31.241-42.522,31.241c-14.753,0-27.77-7.81-34.712-19.959l-35.58-34.712 c-6.942-6.942-13.885-14.753-19.959-21.695c-19.959-23.43-55.539-33.844-79.837-24.298c-4.339,1.736-6.942,3.471-10.414,5.207 c-10.414,6.942-8.678,14.753-8.678,17.356s40.786,52.936,69.424,104.136c0,0,30.373,52.068,56.407,81.573 c4.339,5.207,8.678,11.281,13.017,16.488l17.356,23.431v34.712c0,52.936,42.522,95.458,95.458,95.458h107.607 c43.39,0,87.647-39.919,95.458-81.573c1.736-10.414,6.942-20.827,13.885-29.505c8.678-12.149,26.902-38.183,26.902-73.763V212.918 H502.334z"></path> </g> <g> <path style="fill:#FFE100;" d="M458.944,255.44L458.944,255.44c-22.563,0-43.39-16.488-43.39-39.051V110.518 c0-18.224,15.62-37.315,34.712-37.315h-8.678c19.092,0,34.712,19.092,34.712,37.315v102.4 C476.3,237.216,484.11,255.44,458.944,255.44"></path> <path style="fill:#FFE100;" d="M476.3,212.918c0,24.298-0.868,42.522-26.034,42.522c-22.563,0-34.712-16.488-34.712-38.183 v-41.654c0,25.166-20.827,45.125-45.125,45.125c-22.563,0-41.654-18.224-41.654-41.654v-5.207l-3.471,0.868 c-6.075,16.488-46.861,28.637-65.953,28.637c-13.017,0,16.488-6.075,8.678-15.62l-43.39,1.736 c-6.075,18.224,2.603,31.241-17.356,31.241c-14.753,0-36.447-7.81-43.39-19.959l-34.712-34.712 c-6.942-6.942-11.281-14.753-17.356-21.695c-19.959-23.431-26.034-33.844-50.332-24.298c-4.339,1.736-6.942,3.471-10.414,5.207 c-10.414,6.942-8.678,14.753-8.678,17.356s40.786,52.936,69.424,104.136c0,0,30.373,52.068,56.407,81.573 c4.339,5.207,8.678,11.281,13.017,16.488l17.356,23.431v34.712c0,52.936,7.81,95.458,60.746,95.458h107.607 c43.39,0,61.614-39.919,69.424-81.573c1.736-10.414,6.942-20.827,13.885-29.505c8.678-12.149,26.902-38.183,26.902-73.763V212.918 H476.3z"></path> </g> <path style="fill:#FFFFFF;" d="M198.605,402.965v-34.712l-17.356-23.431c-4.339-6.075-8.678-11.281-13.017-16.488 c-26.034-29.505-56.407-81.573-56.407-81.573c-28.637-51.2-69.424-101.532-69.424-104.136s-1.736-10.414,8.678-17.356 c3.471-1.736,6.075-4.339,10.414-5.207c0.868-0.868,2.603-0.868,3.471-0.868c-13.017-3.471-26.902-3.471-38.183,0.868 c-4.339,0.868-6.942,3.471-10.414,5.207c-10.414,6.942-8.678,14.753-8.678,17.356s40.786,52.936,69.424,104.136 c0,0,30.373,52.068,56.407,81.573c4.339,5.207,8.678,11.281,13.017,16.488l17.356,23.431v34.712 c0,52.936,42.522,95.458,95.458,95.458C206.415,498.423,198.605,455.901,198.605,402.965"></path> <path d="M215.961,418.586c-0.868,0-0.868,0-1.736,0c-24.298-3.471-36.447-19.092-46.861-32.108 c-3.471-4.339-6.942-8.678-10.414-13.017c-3.471-3.471-3.471-8.678,0-12.149c3.471-3.471,8.678-3.471,12.149,0 c4.339,4.339,8.678,9.546,12.149,13.885c9.546,12.149,18.224,22.563,35.58,25.166c4.339,0.868,7.81,5.207,6.942,9.546 C223.771,415.982,220.3,418.586,215.961,418.586z"></path> <path d="M432.91,420.321c-3.471,0-6.942-2.603-8.678-6.075c-0.868-4.339,1.736-9.546,6.075-10.414 c25.166-6.942,28.637-8.678,36.447-19.092c2.603-3.471,8.678-4.339,12.149-1.736c3.471,2.603,4.339,8.678,1.736,12.149 c-11.281,15.62-19.959,18.224-45.993,25.166C434.646,420.321,433.778,420.321,432.91,420.321z"></path> <path d="M196.87,229.406c-27.77,0-50.332-22.563-50.332-50.332V68.864c0-22.563,18.224-47.729,43.39-47.729h17.356 c25.166,0,43.39,25.166,43.39,47.729v106.739C250.673,205.108,226.375,229.406,196.87,229.406z M189.927,38.491 c-14.753,0-26.034,16.488-26.034,30.373v111.078c0,18.224,14.753,32.976,32.976,32.976c19.959,0,36.447-16.488,36.447-36.447 V68.864c0-13.885-11.281-30.373-26.034-30.373H189.927z"></path> <path d="M283.649,212.05c-27.769,0-50.332-22.563-50.332-50.332V51.508c0-22.563,18.224-47.729,43.39-47.729h17.356 c25.166,0,43.39,25.166,43.39,47.729v106.739C337.453,187.752,313.154,212.05,283.649,212.05z M276.707,21.135 c-14.753,0-26.034,16.488-26.034,30.373v111.078c0,18.224,14.753,32.976,32.976,32.976c19.959,0,36.447-16.488,36.447-36.447 V51.508c0-13.885-11.281-30.373-26.034-30.373H276.707z"></path> <path d="M370.429,229.406c-27.77,0-50.332-22.563-50.332-50.332V68.864c0-22.563,18.224-47.729,43.39-47.729h17.356 c25.166,0,43.39,25.166,43.39,47.729v106.739C424.232,205.108,399.934,229.406,370.429,229.406z M363.487,38.491 c-14.753,0-26.034,16.488-26.034,30.373v111.078c0,18.224,14.753,32.976,32.976,32.976c19.959,0,36.447-16.488,36.447-36.447 V68.864c0-13.885-11.281-30.373-26.034-30.373H363.487z"></path> <path d="M458.944,264.118c-28.637,0-52.068-20.827-52.068-47.729V110.518c0-21.695,18.224-45.993,43.39-45.993h17.356 c25.166,0,43.39,24.298,43.39,45.993v102.4C511.012,242.423,488.449,264.118,458.944,264.118z M450.266,81.881 c-14.753,0-26.034,15.62-26.034,28.637v105.871c0,16.488,15.62,30.373,34.712,30.373c19.959,0,34.712-14.753,34.712-33.844v-102.4 c0-13.017-11.281-28.637-26.034-28.637H450.266z"></path> <path d="M366.958,507.101h-20.827c-5.207,0-8.678-3.471-8.678-8.678s3.471-8.678,8.678-8.678h20.827 c38.183,0,79.837-36.447,86.78-74.63c1.736-11.281,6.942-21.695,15.62-32.976c15.62-22.563,24.298-45.125,24.298-68.556v-61.614 c-8.678,7.81-20.827,12.149-34.712,12.149c-28.637,0-52.068-20.827-52.068-47.729v-1.736c-9.546,8.678-22.563,14.753-36.447,14.753 c-22.563,0-40.786-14.753-47.729-34.712c-10.414,10.414-24.298,17.356-39.051,17.356c-13.017,0-26.034-5.207-35.58-14.753h-2.603 c-8.678,19.092-27.77,32.108-49.464,32.108c-16.488,0-32.108-8.678-41.654-22.563l-34.712-33.844 c-6.942-6.942-13.885-14.753-19.959-21.695l-0.868-0.868c-17.356-19.959-48.597-30.373-70.292-21.695 c-2.603,0.868-5.207,2.603-8.678,4.339c-3.471,2.603-3.471,5.207-3.471,7.81c1.736,2.603,5.207,7.81,9.546,13.017 c13.885,19.092,39.919,53.803,59.01,88.515c0,0,30.373,51.2,55.539,79.837c5.207,6.075,9.546,12.149,13.885,17.356l17.356,23.431 c0.868,1.736,1.736,3.471,1.736,5.207v34.712c0,47.729,39.051,86.78,86.78,86.78h17.356c5.207,0,8.678,3.471,8.678,8.678 s-3.471,8.678-8.678,8.678h-17.356c-57.275,0-104.136-46.861-104.136-104.136v-32.108l-15.62-20.827 c-3.471-5.207-7.81-10.414-13.017-15.62c-26.034-29.505-55.539-80.705-57.275-83.308c-19.092-33.844-43.39-67.688-58.142-87.647 C-0.988,146.098-0.988,145.23-0.988,140.891c0-3.471-0.868-14.753,12.149-23.431c2.603-1.736,6.942-4.339,12.149-6.075 c28.637-10.414,67.688,0.868,89.383,26.902l0.868,0.868c6.075,6.942,12.149,13.885,18.224,20.827l35.58,34.712 c0.868,0.868,0.868,0.868,0.868,1.736c6.075,9.546,16.488,15.62,27.77,15.62c15.62,0,29.505-10.414,34.712-25.166 c0.868-2.603,3.471-5.207,6.942-6.075l12.149-1.736c3.471-0.868,6.075,0.868,8.678,3.471c6.075,7.81,15.62,12.149,25.166,12.149 c14.753,0,28.637-9.546,33.844-23.431c0.868-2.603,3.471-5.207,6.942-5.207l3.471-0.868c2.603-0.868,5.207,0,6.942,1.736 c1.736,1.736,3.471,4.339,3.471,6.942v5.207c0,18.224,14.753,32.976,32.976,32.976c19.959,0,36.447-16.488,36.447-36.447 c0-5.207,3.471-8.678,8.678-8.678s8.678,3.471,8.678,8.678v41.654c0,16.488,15.62,30.373,34.712,30.373 c19.959,0,34.712-14.753,34.712-33.844c0-5.207,3.471-8.678,8.678-8.678s8.678,3.471,8.678,8.678V314.45 c0,26.902-9.546,53.803-28.637,78.969c-6.942,8.678-10.414,17.356-12.149,26.034C462.415,464.579,412.951,507.101,366.958,507.101z "></path> <path d="M320.097,498.423c0-5.207-3.471-8.678-8.678-8.678c-5.207,0-8.678,3.471-8.678,8.678s3.471,8.678,8.678,8.678 C316.626,507.101,320.097,503.63,320.097,498.423"></path> <path d="M233.317,290.152c-4.339,0-8.678-3.471-8.678-7.81c-0.868-10.414-6.075-14.753-13.885-19.092 c-24.298-16.488-49.464-45.125-63.349-62.481c-2.603-3.471-5.207-6.075-6.942-8.678c-3.471-3.471-2.603-8.678,0.868-12.149 c3.471-3.471,8.678-2.603,12.149,0.868c1.736,2.603,4.339,5.207,7.81,8.678c13.885,16.488,37.315,44.258,59.878,59.01 c7.81,5.207,19.959,13.017,20.827,32.976C241.995,285.813,238.524,290.152,233.317,290.152L233.317,290.152z"></path> </g> </g></svg>