<svg height="200px" width="200px" version="1.1" id="Layer_1" xmlns="http://www.w3.org/2000/svg" xmlns:xlink="http://www.w3.org/1999/xlink" viewBox="0 0 512 512" xml:space="preserve" fill="#000000"><g id="SVGRepo_bgCarrier" stroke-width="0"></g><g id="SVGRepo_tracerCarrier" stroke-linecap="round" stroke-linejoin="round"></g><g id="SVGRepo_iconCarrier"> <g transform="translate(1 1)"> <g> <path style="fill:#FFE100;" d="M450.808,258.413l7.68-46.08c3.413-16.213-7.68-31.573-23.893-34.987 c-6.827-0.853-12.8,0-18.773,2.56c11.947,5.973,18.773,18.773,16.213,32.427l-7.68,46.08c0,17.92,0,53.76,0,64.853 c0,84.48,1.707,82.773-25.6,119.467v34.133c0,14.507,6.827,25.6-6.827,25.6h5.973c14.507,0,26.453-11.093,26.453-25.6v-34.133 c27.307-36.693,25.6-34.987,25.6-119.467C450.808,313.027,450.808,276.333,450.808,258.413"></path> <path style="fill:#FFE100;" d="M100.941,236.227c-38.4-31.573,8.533-45.227,31.573-32.427l0,0c28.16,15.36,64,36.693,81.92,59.733 l-34.987-192c-3.413-20.48-7.68-29.867,8.533-29.867s20.48,6.827,25.6,29.867l34.133,166.4l51.2-200.533 c5.12-20.48-2.56-29.867,13.653-29.867c11.947,0,23.04,7.68,27.307,17.92c2.56,5.12,2.56,11.947,0.853,17.067l-23.04,118.613 c4.267-14.507,18.773-23.04,34.133-20.48c16.213,3.413,26.453,18.773,23.893,34.987l-5.12,24.747 c3.413-16.213-0.853-26.453,15.36-23.893c16.213,3.413,26.453,18.773,23.893,34.987l-8.533,46.933c0,17.92,0,53.76,0,64.853 c0,84.48,1.707,82.773-25.6,119.467v34.133c0,14.507,6.827,25.6-6.827,25.6H247.715c-13.653,0-24.747-11.093-24.747-25.6v-34.133 c0,0-50.347-27.307-60.587-102.4C162.381,340.333,158.968,284.867,100.941,236.227"></path> </g> <path style="fill:#FDCC00;" d="M382.541,327.533L382.541,327.533c-16.213-3.413-26.453-18.773-23.893-34.987l17.067-87.893 c3.413-16.213,18.773-26.453,34.987-23.893c16.213,3.413,26.453,18.773,23.893,34.987l-17.067,87.893 C414.115,320.707,398.755,330.947,382.541,327.533"></path> <path style="fill:#FFA800;" d="M425.208,258.413l7.68-46.08c3.413-16.213-7.68-31.573-23.893-34.987 c-6.827-0.853-12.8,0-18.773,2.56c11.947,5.973,18.773,18.773,16.213,32.427l-7.68,46.08c0,17.92,0,53.76,0,64.853 c0,84.48,1.707,82.773-25.6,119.467v34.133c0,14.507,6.827,25.6-6.827,25.6h5.973c14.507,0,26.453-11.093,26.453-25.6v-34.133 c27.307-36.693,25.6-34.987,25.6-119.467C425.208,313.027,425.208,276.333,425.208,258.413"></path> <g> <path style="fill:#FFFFFF;" d="M223.821,476.867v-34.133c0,0-50.347-27.307-60.587-102.4c0,0-3.413-55.467-61.44-104.107 c-31.573-26.453-5.973-40.107,17.067-36.693c-4.267-2.56-8.533-5.973-12.8-7.68l0,0c-23.04-12.8-69.12,12.8-31.573,44.373 c58.88,48.64,61.44,104.107,61.44,104.107c11.093,75.093,60.587,102.4,60.587,102.4v34.133c0,14.507,10.24,25.6,24.747,25.6 h26.453C234.061,502.467,223.821,491.373,223.821,476.867"></path> <path style="fill:#FFFFFF;" d="M182.008,234.52c12.8,9.387,23.893,18.773,31.573,29.013l-34.133-192 c-2.56-19.627-7.68-28.16,5.12-29.867c-0.853,0-1.707,0-2.56,0c-16.213,0-32.427,9.387-29.867,29.867L182.008,234.52z"></path> </g> <path style="fill:#FDCC00;" d="M323.661,316.44L323.661,316.44c-16.213-3.413-26.453-18.773-23.893-34.987l22.187-112.64 c3.413-16.213,18.773-26.453,34.987-23.893c16.213,3.413,26.453,18.773,23.893,34.987l-22.187,112.64 C356.088,308.76,339.875,319.853,323.661,316.44"></path> <path d="M222.115,451.267h-25.6c-5.12,0-8.533-3.413-8.533-8.533c0-5.12,3.413-8.533,8.533-8.533h25.6 c5.12,0,8.533,3.413,8.533,8.533C230.648,447.853,227.235,451.267,222.115,451.267z"></path> <path d="M401.315,451.267h-17.067c-5.12,0-8.533-3.413-8.533-8.533c0-5.12,3.413-8.533,8.533-8.533h17.067 c5.12,0,8.533,3.413,8.533,8.533C409.848,447.853,406.435,451.267,401.315,451.267z"></path> <path d="M212.728,323.267c-2.56,0-4.267-0.853-5.973-2.56c-15.36-16.213-23.893-41.813-27.307-54.613 c-0.853-4.267,1.707-9.387,5.973-10.24c4.267-0.853,9.387,1.707,10.24,5.973c5.12,20.48,13.653,37.547,23.893,47.787 c3.413,3.413,3.413,8.533,0,11.947C216.995,322.413,214.435,323.267,212.728,323.267z"></path> <path d="M329.635,324.973c-2.56,0-5.12,0-7.68-0.853c-10.24-1.707-18.773-7.68-24.747-16.213 c-5.973-8.533-7.68-18.773-5.973-29.013l22.187-112.64c1.707-10.24,7.68-18.773,16.213-24.747s18.773-7.68,29.013-5.973 c20.48,4.267,34.133,24.747,29.867,45.227l-21.333,113.493C363.768,313.027,347.555,324.973,329.635,324.973z M351.821,152.6 c-4.267,0-8.533,0.853-11.947,3.413c-5.12,3.413-7.68,7.68-9.387,13.653l-22.187,112.64c-0.853,5.973,0,11.093,3.413,16.213 c3.413,5.12,7.68,7.68,13.653,9.387c11.947,2.56,23.04-5.12,24.747-17.067l23.04-112.64c2.56-11.947-5.12-23.04-17.067-24.747 C354.381,152.6,353.528,152.6,351.821,152.6z"></path> <path d="M388.515,336.92c-2.56,0-5.12,0-7.68-0.853c-10.24-1.707-18.773-7.68-24.747-16.213c-5.973-8.533-7.68-18.773-5.973-29.013 l17.067-87.893c1.707-10.24,7.68-18.773,16.213-24.747c8.533-5.973,18.773-7.68,29.013-5.973 c20.48,4.267,34.133,24.747,29.867,45.227l-17.067,87.893C422.648,324.12,406.435,336.92,388.515,336.92z M405.581,189.293 c-4.267,0-8.533,0.853-11.947,3.413c-5.12,3.413-7.68,7.68-9.387,13.653l-17.067,87.893c-0.853,5.973,0,11.093,3.413,16.213 c3.413,5.12,7.68,7.68,13.653,9.387c11.947,2.56,23.04-5.12,24.747-17.067l17.067-87.893c2.56-11.947-5.12-23.04-17.067-24.747 C408.141,189.293,407.288,189.293,405.581,189.293z"></path> <path d="M374.861,511h-58.88c-5.12,0-8.533-3.413-8.533-8.533c0-5.12,3.413-8.533,8.533-8.533h58.88 c9.387,0,17.92-7.68,17.92-17.067v-34.133c0-1.707,0.853-3.413,1.707-5.12c23.893-32.427,23.893-32.427,23.893-97.28v-81.067 c0-0.853,0-0.853,0-1.707l7.68-46.08c2.56-11.947-5.12-23.04-17.067-25.6c-11.947-2.56-23.04,5.12-24.747,17.067l0,0 c-0.853,4.267-5.12,7.68-10.24,6.827c-4.267-0.853-7.68-5.12-6.827-10.24l0,0l5.12-24.747c2.56-11.947-5.12-23.04-17.067-24.747 c-10.24-1.707-20.48,4.267-23.893,14.507c-1.707,4.267-5.973,6.827-10.24,5.973c-4.267-0.853-6.827-5.12-5.973-10.24 l23.893-118.613c0.853-3.413,0.853-8.533-0.853-12.8c-2.56-7.68-10.24-12.8-18.773-12.8c-10.24,0-17.067,3.413-21.333,23.04 L256.248,239.64c-0.853,4.267-4.267,6.827-8.533,6.827l0,0c-4.267,0-7.68-2.56-8.533-6.827l-34.987-166.4 c-5.12-21.333-11.093-23.04-21.333-23.04c-7.68,0-14.507,2.56-17.92,6.827c-2.56,3.413-4.267,7.68-3.413,13.653l34.133,192 c0.853,4.267-1.707,7.68-5.12,9.387s-7.68,0.853-10.24-2.56c-16.213-21.333-52.053-54.613-78.507-69.12 c-9.387-5.12-25.6-0.853-31.573,7.68c-5.12,7.68,2.56,17.067,9.387,23.04c60.587,50.347,64.853,107.52,64.853,110.08 c9.387,67.413,54.613,93.013,56.32,93.867c2.56,1.707,4.267,4.267,4.267,7.68v34.133c0,9.387,6.827,17.067,16.213,17.067h26.453 c5.12,0,8.533,3.413,8.533,8.533c0,5.12-3.413,8.533-8.533,8.533h-26.453c-18.773,0-33.28-15.36-33.28-34.133V447 c-13.653-8.533-51.2-40.107-60.587-105.813c0-0.853-4.267-52.907-58.88-98.133c-26.453-21.333-16.213-40.96-12.8-46.08 c11.093-16.213,36.693-22.187,53.76-12.8c20.48,11.093,45.227,31.573,64,50.347L144.461,72.387 c-1.707-13.653,2.56-22.187,6.827-27.307c6.827-7.68,17.92-11.947,31.573-11.947c21.333,0,32.427,10.24,38.4,36.693l26.453,126.293 l33.28-160.427C284.408,19.48,292.941-1,319.395-1c15.36,0,29.013,9.387,35.84,23.04c2.56,6.827,3.413,14.507,1.707,22.187 l-18.773,89.6c6.827-2.56,14.507-3.413,21.333-1.707c18.773,3.413,31.573,20.48,30.72,39.253c6.827-3.413,14.507-4.267,23.04-2.56 c10.24,1.707,18.773,7.68,24.747,16.213c5.973,8.533,7.68,18.773,5.973,29.013l-8.533,45.227v81.067c0,66.56,0,70.827-25.6,105.813 v30.72C409.848,495.64,393.635,511,374.861,511z"></path> <path d="M290.381,502.467c0-5.12-3.413-8.533-8.533-8.533s-8.533,3.413-8.533,8.533c0,5.12,3.413,8.533,8.533,8.533 S290.381,507.587,290.381,502.467"></path> </g> </g></svg>